<?xml version="1.0" standalone="no"?>
<!DOCTYPE svg PUBLIC "-//W3C//DTD SVG 20010904//EN"
 "http://www.w3.org/TR/2001/REC-SVG-20010904/DTD/svg10.dtd">
<svg version="1.0" xmlns="http://www.w3.org/2000/svg"
 width="130.000000pt" height="130.000000pt" viewBox="0 0 130.000000 130.000000"
 preserveAspectRatio="xMidYMid meet">
<metadata>
Created by potrace 1.11, written by Peter Selinger 2001-2013
</metadata>
<g transform="translate(0.000000,130.000000) scale(0.100000,-0.100000)"
fill="#000000" stroke="none">
<path d="M652 1145 c-22 -25 -39 -45 -36 -45 3 0 -4 -13 -15 -29 -16 -23 -45
-113 -50 -159 -2 -15 -27 -7 -54 18 -56 52 -67 60 -92 66 -14 3 -28 10 -31 15
-3 5 -10 7 -15 4 -5 -4 -9 -2 -9 3 0 5 -6 9 -12 9 -7 1 -39 5 -71 10 -80 14
-88 2 -48 -77 35 -68 42 -77 88 -122 39 -37 43 -72 11 -89 -13 -7 -24 -11 -26
-10 -1 2 -24 0 -50 -5 -26 -4 -50 -7 -54 -6 -5 1 -8 -2 -8 -8 0 -5 -7 -10 -16
-10 -9 0 -40 -25 -69 -55 -40 -41 -52 -60 -48 -75 3 -12 11 -19 19 -16 7 3 15
2 18 -2 9 -15 197 -2 265 18 31 9 36 7 62 -22 15 -18 25 -36 23 -40 -3 -4 2
-8 10 -8 8 0 24 -11 35 -26 11 -14 21 -24 23 -23 2 2 17 -3 33 -10 29 -13 30
-15 30 -86 0 -55 6 -84 25 -126 14 -30 29 -57 35 -61 7 -5 7 -8 0 -8 -5 0 -2
-5 8 -11 9 -5 17 -17 17 -24 0 -8 4 -15 9 -15 11 0 61 65 61 80 0 6 4 8 10 5
6 -3 7 1 4 9 -4 10 -1 16 7 16 7 0 10 3 6 6 -3 4 0 19 9 35 8 16 14 31 13 34
-1 5 10 64 16 88 2 4 3 18 4 32 1 26 66 79 84 68 6 -3 7 -1 3 5 -4 7 -1 12 8
12 9 0 16 6 16 14 0 12 55 65 69 67 3 0 13 2 21 4 16 3 56 11 103 20 16 3 46
16 67 30 21 13 41 21 45 17 4 -4 5 -2 3 3 -1 6 7 21 18 33 21 22 40 77 23 67
-4 -3 -13 0 -21 7 -13 12 -21 15 -58 23 -8 2 -15 4 -15 5 0 1 -24 2 -53 3 -28
1 -52 -1 -52 -5 0 -9 -88 -48 -109 -48 -9 0 4 13 29 29 25 15 61 46 80 67 19
22 38 38 43 36 5 -1 6 2 2 7 -3 6 2 19 12 31 10 11 19 25 19 30 1 6 2 15 3 21
0 5 5 8 9 5 5 -3 9 10 9 28 0 20 -5 33 -11 30 -6 -1 -31 -5 -56 -8 -25 -2 -56
-8 -70 -14 -14 -5 -28 -9 -31 -8 -4 0 -16 -7 -27 -17 -12 -11 -26 -16 -33 -11
-7 4 -10 3 -5 -4 7 -11 -32 -38 -47 -34 -5 1 -6 -1 -3 -6 3 -5 -3 -15 -12 -23
-20 -16 -76 -24 -67 -9 3 6 1 10 -5 10 -7 0 -8 6 -1 18 13 24 20 112 9 118 -4
3 -8 13 -8 23 0 10 -9 29 -19 43 -11 14 -21 31 -23 39 -3 14 -27 38 -39 39 -3
0 -24 -20 -47 -45z m17 -386 c38 -13 52 -42 40 -84 -12 -42 -44 -63 -88 -58
-90 10 -111 125 -26 146 33 8 41 7 74 -4z"/>
</g>
</svg>
