<?xml version="1.0" standalone="no"?>
<!DOCTYPE svg PUBLIC "-//W3C//DTD SVG 20010904//EN"
 "http://www.w3.org/TR/2001/REC-SVG-20010904/DTD/svg10.dtd">
<svg version="1.0" xmlns="http://www.w3.org/2000/svg"
 width="260.000000pt" height="260.000000pt" viewBox="0 0 260.000000 260.000000"
 preserveAspectRatio="xMidYMid meet">
<metadata>
Created by potrace 1.11, written by Peter Selinger 2001-2013
</metadata>
<g transform="translate(0.000000,260.000000) scale(0.100000,-0.100000)"
fill="#000000" stroke="none">
<path d="M1084 2505 c-239 -44 -477 -169 -649 -342 -175 -175 -282 -372 -341
-628 -25 -108 -25 -375 0 -485 40 -179 104 -326 200 -464 70 -100 220 -251
306 -308 141 -92 309 -163 475 -199 90 -20 381 -17 473 5 248 57 449 166 617
334 144 144 240 296 301 479 47 140 64 244 64 392 0 254 -66 474 -205 685 -67
102 -213 254 -309 321 -139 98 -340 181 -506 210 -103 18 -327 18 -426 0z m91
-519 c97 -17 212 -61 225 -87 6 -10 10 -45 9 -78 -2 -73 -8 -75 -83 -25 -88
58 -182 85 -301 85 -87 0 -110 -4 -158 -25 -146 -64 -212 -183 -211 -381 1
-88 5 -121 22 -165 43 -109 122 -185 228 -220 81 -27 291 -11 352 26 21 14 22
19 18 123 -2 60 -6 113 -10 119 -4 7 -51 10 -129 9 l-122 -2 -3 58 -3 57 194
0 c169 0 196 -2 201 -16 3 -9 6 -103 6 -209 0 -227 11 -207 -140 -257 -242
-79 -504 -33 -632 112 -165 186 -168 541 -5 726 120 136 315 190 542 150z
m697 -457 c33 -11 88 -34 122 -51 70 -34 204 -132 213 -154 6 -16 -34 -131
-50 -141 -5 -3 -14 3 -20 13 -21 37 -103 117 -157 154 -77 52 -158 80 -231 80
-93 0 -139 -31 -160 -110 -22 -82 20 -134 196 -240 206 -125 271 -226 232
-361 -47 -158 -212 -239 -400 -195 -129 30 -291 120 -376 209 l-33 35 27 71
c16 39 32 71 36 71 4 0 21 -19 37 -42 95 -138 265 -238 404 -238 92 0 146 39
168 121 21 76 -19 124 -198 234 -121 75 -189 137 -218 200 -58 124 -3 269 126
334 55 27 74 31 142 31 53 0 99 -7 140 -21z"/>
</g>
</svg>
